<svg xmlns="http://www.w3.org/2000/svg" width="20" height="20" viewBox="0 0 20 20"><defs><style>.a{fill:#fff;}</style></defs><g transform="translate(-30.8 -529.6)"><path class="a" d="M62.311,62.311A21.823,21.823,0,0,0,61.372,66a7.7,7.7,0,0,0,2.05,5.2H51.2V67.867c0-2.248,2.2-5.556,4.444-5.556h6.666ZM58.422,51.2a5,5,0,1,1-5,5A5,5,0,0,1,58.422,51.2Zm6.939,12.368.069-1.089a.178.178,0,0,1,.178-.168H67.9a.178.178,0,0,1,.178.167l.068,1.087a3.381,3.381,0,0,1,.672.389l.974-.484a.178.178,0,0,1,.233.07l1.147,1.989a.178.178,0,0,1-.056.237l-.9.6a3.516,3.516,0,0,1,0,.782l.906.6a.178.178,0,0,1,.056.238l-1.148,1.989a.178.178,0,0,1-.233.07l-.978-.486a3.46,3.46,0,0,1-.67.386l-.068,1.087a.178.178,0,0,1-.178.167H65.607a.178.178,0,0,1-.178-.167l-.069-1.09a3.473,3.473,0,0,1-.667-.387l-.979.486a.178.178,0,0,1-.233-.07l-1.148-1.989a.178.178,0,0,1,.056-.237l.912-.607a3.521,3.521,0,0,1,0-.767l-.911-.6a.178.178,0,0,1-.056-.238l1.148-1.989a.178.178,0,0,1,.233-.07l.976.484A3.466,3.466,0,0,1,65.361,63.568Zm1.394,5.41a2.222,2.222,0,1,0-2.222-2.222A2.222,2.222,0,0,0,66.755,68.978Z" transform="translate(-20.4 478.4)"/></g></svg>