<svg xmlns="http://www.w3.org/2000/svg" width="20" height="20" viewBox="0 0 20 20"><defs><style>.a{fill:#fff;}</style></defs><path class="a" d="M35.213,10.466V6.19c-.165-.025-.322-.271-.5-.271h-.1c-.2,0-.39.256-.582.284v4.263H24.625V7.056A1.158,1.158,0,0,1,25.8,5.919h2.156a2.49,2.49,0,0,1-1.3-1.226c-.575-1.287.3-2.833,1.406-3.637a2.272,2.272,0,0,1,1.9-.274,10.457,10.457,0,0,1,4.705,3.171,10.449,10.449,0,0,1,4.7-3.171,2.279,2.279,0,0,1,1.9.274c1.111.8,1.981,2.35,1.406,3.637a2.49,2.49,0,0,1-1.3,1.226h2.075a1.158,1.158,0,0,1,1.177,1.137v3.41H35.213ZM29.7,1.889a2.064,2.064,0,0,0-.44-.054.817.817,0,0,0-.487.133c-.743.537-1.35,1.561-1.031,2.276.179.4,1.156,1.61,6.309.811A9.411,9.411,0,0,0,29.7,1.889ZM41.6,4.243c.319-.715-.286-1.738-1.031-2.276a1.162,1.162,0,0,0-.925-.078,9.392,9.392,0,0,0-4.362,3.179c5.156.8,6.138-.423,6.318-.824ZM34.037,20.7H26.978A1.157,1.157,0,0,1,25.8,19.561V11.6h8.235V20.7Zm9.412-1.136A1.157,1.157,0,0,1,42.272,20.7H35.213V11.6h8.234v7.957Z" transform="translate(-24.625 -0.697)"/></svg>