<svg xmlns="http://www.w3.org/2000/svg" width="18" height="18.002" viewBox="0 0 18 18.002">
  <defs>
    <style>
      .cls-1 {
        fill: #5688e8;
      }
    </style>
  </defs>
  <path id="返回" class="cls-1" d="M73.2,60.7a9,9,0,1,0,9,9A9.014,9.014,0,0,0,73.2,60.7Zm5.03,12.762a.235.235,0,0,1-.466.042,3.216,3.216,0,0,0-.814-1.393A5.255,5.255,0,0,0,73.2,70.722v1.89a.233.233,0,0,1-.129.208.24.24,0,0,1-.246-.018l-4.51-3.234a.216.216,0,0,1-.052-.052.231.231,0,0,1,.052-.322l4.51-3.247a.24.24,0,0,1,.246-.02.237.237,0,0,1,.129.208V68.14a6.421,6.421,0,0,1,1.384.208,4.974,4.974,0,0,1,2.309,1.274A5.084,5.084,0,0,1,78.232,73.462Z" transform="translate(-64.2 -60.7)"/>
</svg>
