<svg xmlns="http://www.w3.org/2000/svg" width="20" height="20" viewBox="0 0 20 20">
    <defs>
        <style>.a{fill:#fff;}</style>
    </defs>
    <g transform="translate(-31 -401)">
        <g transform="translate(-142 254.12)">
            <path class="a" d="M700.26,146.88v2.94a1.062,1.062,0,0,0,1.062,1.062h2.94v-.02Z" transform="translate(-511.262 0)" />
            <path class="a" d="M192.664,152.09H189.67a2,2,0,0,1-2.065-1.917v-3.026a1.8,1.8,0,0,1,.02-.266H175.065A2,2,0,0,0,173,148.8v16.166a2,2,0,0,0,2.065,1.917h15.87A2,2,0,0,0,193,164.963v-12.9A2.233,2.233,0,0,1,192.664,152.09Zm-16.5,2.766h10.663v1.027H176.16Zm13.318,7.653H176.16v-1.028h13.318Zm0-3.314H176.16v-1.027h13.318Z" transform="translate(0 0)" />
        </g>
    </g>
</svg>