<svg xmlns="http://www.w3.org/2000/svg" width="20" height="20" viewBox="0 0 20 20"><defs><style>.a{fill:#fff;}</style></defs><g transform="translate(-30.49 -465)"><path class="a" d="M.018,3.06c0,1.093,1.45,2.1,3.8,2.65a17.851,17.851,0,0,0,7.605,0c2.353-.547,3.8-1.557,3.8-2.65,0-1.69-3.4-3.06-7.605-3.06S.018,1.37.018,3.06Zm10.4,6.66a6.871,6.871,0,0,1,4.348-1.59,1.3,1.3,0,0,0,.5-1.054V4.3c-.107,1.648-3.462,2.98-7.6,2.98S.018,5.908.018,4.22V6.858c0,1.7,3.41,3.073,7.6,3.073a13.524,13.524,0,0,0,2.8-.212ZM.018,7.913v2.637c0,1.688,3.41,3.06,7.6,3.06h.554a5.124,5.124,0,0,1,1.218-2.7,15.106,15.106,0,0,1-1.773.114c-4.195,0-7.6-1.372-7.6-3.112Zm7.6,6.875C3.4,14.789,0,13.472,0,11.733v2.635c0,1.686,3.414,3.056,7.614,3.056H8.663a5.141,5.141,0,0,1-.569-2.634h-.48ZM14.635,9.27A5.365,5.365,0,1,0,20,14.635,5.365,5.365,0,0,0,14.635,9.27ZM17.4,13.249,14.085,16.6l0,0s0,0,0,0a.418.418,0,0,1-.09.058.261.261,0,0,1-.044.028.411.411,0,0,1-.314,0c-.014-.006-.027-.02-.043-.029A.382.382,0,0,1,13.5,16.6l0,0,0,0-1.631-1.676a.414.414,0,0,1,.594-.577l1.336,1.373,3.019-3.052a.414.414,0,1,1,.589.583Z" transform="translate(30.49 465)"/></g></svg>