<svg xmlns="http://www.w3.org/2000/svg" width="20" height="20" viewBox="0 0 20 20"><defs><style>.a{fill:#fff;}</style></defs><path class="a" d="M14.075,98.607V92.2H8.926v6.418c-.1.005-.177.014-.255.014H5.21a.842.842,0,0,1-.857-.939c-.01-2.223-.007-5.448,0-7.671a.558.558,0,0,1,.166-.347Q6.54,87.755,8.57,85.846l2.7-2.546c.07-.065.141-.129.229-.21L13.1,84.6q2.638,2.491,5.279,4.979a.782.782,0,0,1,.269.643c-.011,2.11-.008,5.222,0,7.331a1.05,1.05,0,0,1-.378.929.686.686,0,0,1-.366.144c-1.578.009-2.156,0-3.733,0a.364.364,0,0,1-.09-.025Zm1.37-15.959c0-.892,0-2.538,0-3.361,0-.525.11-.651.568-.652q1.066,0,2.132,0c.367,0,.493.149.494.594,0,1.76.006,4.345,0,6.106a.743.743,0,0,0,.251.619c.779.718,1.543,1.456,2.311,2.189.377.36.386.535.069.963-.192.26-.38.524-.574.783-.238.321-.435.341-.719.068l-8.181-7.823c-.094-.09-.191-.178-.3-.282-.613.585-1.222,1.164-1.829,1.745l-6.64,6.348c-.3.287-.486.27-.738-.068q-.313-.421-.622-.847a.527.527,0,0,1,.059-.823q1.853-1.776,3.711-3.546,2.474-2.363,4.949-4.726a1.419,1.419,0,0,1,2.226.005q1.329,1.277,2.662,2.548c.042.04.087.077.175.156Zm0,0" transform="translate(-1.492 -78.636)"/></svg>