<svg xmlns="http://www.w3.org/2000/svg" width="49.942" height="38" viewBox="0 0 49.942 38">
  <g id="组_2001" data-name="组 2001" transform="translate(-78.406 -244.989)">
    <path id="路径_1432" data-name="路径 1432" d="M128.206,281.143l-4.882.475-.766,3.071-6.712.618-1.328,5.248-6.517.591,1.4-5.414-6.612.629-1.359,5.514-21.324,2.012-1.7,6.588H106.5c10.454,0,20.257-8.546,21.664-19v0C128.178,281.366,128.192,281.255,128.206,281.143Z" transform="translate(0 -17.486)" fill="#fff"/>
    <path id="路径_1433" data-name="路径 1433" d="M118.532,244.989H94.912l-2.67,10.337,13.405-1.24-1.311,5.254,7.59-.717-1.134,4.551,7.644-.721-1.166,4.675,4.58-.431.461-1.846h0l.756-3.031,11.97-1.177C134.719,251.772,127.843,244.989,118.532,244.989Zm.615,12.986-7.22.655,1.3-5.217,7.227-.683Z" transform="translate(-6.692 0)" fill="#fff"/>
    <path id="路径_1434" data-name="路径 1434" d="M99.264,288.3l1.468-5.888-8.114.767-1.46,5.857Z" transform="translate(-6.167 -18.101)" fill="#fff"/>
  </g>
</svg>
