<svg xmlns="http://www.w3.org/2000/svg" width="20" height="20" viewBox="0 0 20 20"><defs><style>.a{fill:#fff;}</style></defs><g transform="translate(-149.301 -119.077)"><path class="a" d="M331.984,122.153h5.668a1.289,1.289,0,0,0,1.334-1.231v-.615a1.289,1.289,0,0,0-1.334-1.231h-5.668a1.289,1.289,0,0,0-1.334,1.231v.615A1.289,1.289,0,0,0,331.984,122.153Zm13.353,12.46h-.383a.451.451,0,0,1-.417-.277l-.217-.492a.423.423,0,0,1,.067-.477l.267-.246a.29.29,0,0,0,0-.415l-.45-.415a.341.341,0,0,0-.467,0l-.267.246a.514.514,0,0,1-.517.077l-.533-.2a.422.422,0,0,1-.3-.385v-.354a.305.305,0,0,0-.317-.292h-.633a.3.3,0,0,0-.317.292v.354a.422.422,0,0,1-.3.385l-.533.2a.459.459,0,0,1-.5-.077l-.267-.246a.321.321,0,0,0-.45,0l-.45.415a.265.265,0,0,0,0,.415l.267.246a.4.4,0,0,1,.083.477l-.217.492a.451.451,0,0,1-.417.277h-.383a.3.3,0,0,0-.317.292v.6a.305.305,0,0,0,.317.292h.383a.451.451,0,0,1,.417.277l.217.492a.4.4,0,0,1-.083.477l-.267.246a.29.29,0,0,0,0,.415l.45.415a.32.32,0,0,0,.45,0l.267-.246a.456.456,0,0,1,.5-.062l.533.2a.422.422,0,0,1,.3.385v.354a.305.305,0,0,0,.317.292h.633a.3.3,0,0,0,.317-.292V138.4a.422.422,0,0,1,.3-.385l.533-.2a.522.522,0,0,1,.517.062l.267.246a.32.32,0,0,0,.45,0l.45-.415a.29.29,0,0,0,0-.415l-.267-.246a.416.416,0,0,1-.067-.477l.217-.492a.451.451,0,0,1,.417-.277h.383a.3.3,0,0,0,.317-.292v-.6a.281.281,0,0,0-.3-.292Zm-3.851,2.323a1.728,1.728,0,1,1,1.867-1.723A1.8,1.8,0,0,1,341.486,136.936Z" transform="translate(-176.337 0)"/><path class="a" d="M160.158,193.625a4.82,4.82,0,0,1,4.586-4.155,5.358,5.358,0,0,1,2.435.382.332.332,0,0,0,.467-.275V181.36a1.928,1.928,0,0,0-2-1.833H163.81a.321.321,0,0,0-.334.305v.153a1.928,1.928,0,0,1-2,1.833h-6a1.928,1.928,0,0,1-2-1.833v-.153a.321.321,0,0,0-.334-.305H151.3a1.928,1.928,0,0,0-2,1.833v14.663a1.928,1.928,0,0,0,2,1.833h10.14a.3.3,0,0,0,.233-.519,4.371,4.371,0,0,1-1.518-3.712Zm-8.339-8.752h11.674a.767.767,0,1,1,0,1.527H151.819a.767.767,0,1,1,0-1.527Zm4.1,7.637H151.8a.767.767,0,1,1,0-1.527h4.119a.793.793,0,0,1,.834.764A.8.8,0,0,1,155.922,192.51Zm2.552-3.055H151.8a.767.767,0,1,1,0-1.527h6.671a.767.767,0,1,1,0,1.527Z" transform="translate(0 -58.78)"/></g></svg>