<svg xmlns="http://www.w3.org/2000/svg" width="20" height="20" viewBox="0 0 20 20"><defs><style>.a{fill:#fff;}</style></defs><g transform="translate(-32.179 -219)"><path class="a" d="M0,4.733C0,7.356,3.851,9.48,8.524,9.48s8.524-2.124,8.524-4.747S13.235,0,8.524,0,0,2.124,0,4.733ZM8.524,10.9c-3.479,0-6.418-1.152-7.8-2.776A3.056,3.056,0,0,0,0,9.993c0,2.609,3.851,4.636,8.524,4.733,1.617,0,1.425,0,1.425-.18a5.791,5.791,0,0,1,1.438-3.761,16.418,16.418,0,0,1-2.863.111Zm0,5.385c-3.53,0-6.547-1.18-7.843-2.887A3.006,3.006,0,0,0,0,15.267C0,17.876,3.851,20,8.524,20c3.671,0,3.3-.375,3.3-.375a7.834,7.834,0,0,1-1.8-3.4,6.061,6.061,0,0,1-1.5.069Zm8.164-2.318A1.208,1.208,0,0,1,16.1,15v1.138a.674.674,0,0,1-.27.643.566.566,0,0,1-.653,0,.674.674,0,0,1-.27-.643V15a1.232,1.232,0,1,1,1.784-1.041Zm3.312.8a4.7,4.7,0,0,0-4.5-4.885,4.7,4.7,0,0,0-4.514,4.867,4.7,4.7,0,0,0,4.506,4.876A4.7,4.7,0,0,0,20,14.767Z" transform="translate(32.179 219)"/></g></svg>